<svg width="735" height="154" viewBox="0 0 735 154" fill="none" xmlns="http://www.w3.org/2000/svg">
<g id="Frame 2">
<g id="logo only">
<g id="Frame">
<g id="Subtract">
<path fill-rule="evenodd" clip-rule="evenodd" d="M62.9549 53.4634C59.4696 40.8514 57.7305 34.5418 60.6912 29.576C63.6448 24.6031 70.1485 22.9071 83.1557 19.5295L96.9868 15.9421C109.972 12.5631 116.469 10.8724 121.596 13.7445C126.712 16.6119 128.458 22.9215 131.944 35.5407L135.638 48.9217C139.13 61.5337 140.869 67.8433 137.909 72.8163C134.948 77.7821 128.444 79.4708 115.437 82.8484L101.573 86.4589C88.6096 89.8249 82.1194 91.5102 77.0042 88.6406C71.8858 85.7763 70.145 79.477 66.667 66.8917L62.9549 53.4634ZM99.7248 36.0767C101.435 36.0416 103.161 36.1574 104.902 36.4241L105.659 29.6292C103.773 29.1802 101.73 28.945 99.5294 28.9237C97.3635 28.8897 94.7419 29.4328 91.6647 30.5528C89.3514 31.5122 87.4719 32.8032 86.0264 34.4257C84.5682 36.0136 83.6336 37.8026 83.2224 39.7925C82.8457 41.7699 83.0601 43.865 83.8655 46.0778C84.5325 47.9103 85.4272 49.3466 86.5498 50.3868C87.6943 51.3798 88.9598 52.1135 90.3462 52.5877C91.7547 53.0149 93.1882 53.2958 94.6468 53.4305C96.1055 53.5653 97.5044 53.6434 98.8435 53.665C99.9846 53.6804 101.064 53.7964 102.083 54.013C103.136 54.217 104.018 54.5421 104.729 54.9883C105.474 55.4219 105.985 56.019 106.262 56.7797C106.664 57.8861 106.668 58.8637 106.272 59.7126C105.911 60.5489 105.314 61.2752 104.481 61.8916C103.67 62.4608 102.815 62.909 101.916 63.2362C101.017 63.5634 99.9813 63.7837 98.8088 63.8973C97.6363 64.0108 96.426 64.0206 95.178 63.9266C93.952 63.7855 92.77 63.5501 91.6319 63.2204L90.4457 70.2889C92.134 70.7317 93.8174 71 95.4961 71.0938C97.1622 71.153 98.7952 71.0677 100.395 70.8377C102.017 70.5606 103.554 70.1578 105.006 69.6292C107.842 68.5973 110.045 67.2277 111.616 65.5203C113.175 63.7783 114.153 61.895 114.552 59.8705C114.951 57.8459 114.798 55.8655 114.093 53.9293C113.426 52.0968 112.607 50.6526 111.635 49.5967C110.651 48.5062 109.575 47.7033 108.409 47.1881C107.23 46.6384 105.987 46.2882 104.679 46.1377C103.393 45.94 102.121 45.8351 100.864 45.8229C99.4903 45.8139 98.1323 45.7404 96.79 45.6025C95.4822 45.452 94.3395 45.1631 93.3617 44.7359C92.4059 44.2615 91.7644 43.5748 91.4373 42.6759C90.959 41.362 91.0672 40.2067 91.7616 39.21C92.456 38.2133 93.6157 37.4192 95.2408 36.8278C96.5546 36.3496 98.0493 36.0992 99.7248 36.0767Z" fill="white"/>
<path d="M11.5356 26.5544C11.0994 27.1124 10.7774 27.7509 10.588 28.4334C10.3991 29.1157 10.3465 29.8286 10.4332 30.5312C10.5198 31.2339 10.7441 31.9126 11.0931 32.5285C11.4421 33.1445 11.9091 33.6857 12.4673 34.1211C13.0255 34.5566 13.6641 34.8778 14.3465 35.0664L26.592 38.4655C28.038 38.8512 29.36 39.6035 30.4301 40.6497C31.5002 41.6958 32.2822 43.0005 32.7004 44.4374L48.1654 100.405C47.6001 100.51 47.0324 100.635 46.4623 100.778C35.036 103.746 28.2521 115.151 31.3134 126.232C34.3748 137.314 46.1245 143.896 57.5508 140.921C67.0871 138.449 73.3895 130.099 73.4326 120.972L75.8041 120.239L139.31 103.739C139.995 103.561 140.638 103.249 141.203 102.822C141.768 102.395 142.243 101.861 142.601 101.251C142.96 100.64 143.194 99.9648 143.292 99.2636C143.389 98.5623 143.347 97.8488 143.169 97.1636C142.991 96.4785 142.679 95.8352 142.252 95.2704C141.825 94.7057 141.291 94.2306 140.68 93.8722C140.07 93.5139 139.395 93.2793 138.693 93.1819C137.992 93.0845 137.279 93.1262 136.593 93.3046L72.8505 109.869L70.6228 110.559C68.1304 106.358 64.2683 103.143 59.6851 101.454L58.5497 97.5229L43.0919 41.57C42.1782 38.3361 40.4432 35.3936 38.0556 33.0287C35.668 30.6638 32.7091 28.9569 29.4666 28.0741L17.2282 24.6821C16.5459 24.492 15.8328 24.4383 15.1297 24.524C14.4266 24.6096 13.7473 24.8331 13.1306 25.1815C12.5139 25.5298 11.9719 25.9964 11.5356 26.5544Z" fill="white"/>
</g>
</g>
</g>
<g id="text only no flair">
<g id="SIMPSTOCK">
<path id="Vector" d="M688.545 55.496L687.681 59.048L690.177 56.36L716.385 30.344H734.433L701.409 62.024L725.889 101H708.225L690.081 70.856L686.241 74.312L682.977 101H668.865L677.505 30.344H691.617L688.545 55.496Z" fill="white"/>
<path id="Vector_2" d="M655.694 96.872C654.926 97.384 653.55 98.088 651.566 98.984C649.646 99.816 647.31 100.552 644.558 101.192C641.87 101.896 638.926 102.248 635.726 102.248C632.078 102.248 628.27 101.704 624.302 100.616C620.398 99.528 616.75 97.736 613.358 95.24C609.966 92.744 607.214 89.384 605.102 85.16C602.99 80.936 601.934 75.688 601.934 69.416C601.934 65.384 602.382 61.448 603.278 57.608C604.174 53.768 605.55 50.184 607.406 46.856C609.326 43.464 611.726 40.52 614.606 38.024C617.486 35.464 620.91 33.48 624.878 32.072C628.846 30.6 633.358 29.864 638.414 29.864C643.726 29.864 648.334 30.696 652.238 32.36C656.142 33.96 659.246 35.624 661.55 37.352L654.446 50.12C653.038 48.84 651.086 47.464 648.59 45.992C646.094 44.52 643.15 43.656 639.758 43.4C636.302 43.208 633.134 43.688 630.254 44.84C627.438 45.928 625.006 47.592 622.958 49.832C620.91 52.072 619.31 54.76 618.158 57.896C617.07 61.032 616.526 64.52 616.526 68.36C616.526 71.368 616.974 74.12 617.87 76.616C618.766 79.112 620.046 81.256 621.71 83.048C623.438 84.84 625.518 86.248 627.95 87.272C630.446 88.232 633.23 88.712 636.302 88.712C639.054 88.712 641.422 88.424 643.406 87.848C645.39 87.208 647.054 86.536 648.398 85.832C649.742 85.064 650.766 84.456 651.47 84.008L655.694 96.872Z" fill="white"/>
<path id="Vector_3" d="M554.072 101.672C550.04 101.672 546.008 101.032 541.976 99.752C538.008 98.472 534.36 96.488 531.032 93.8C527.768 91.048 525.144 87.56 523.16 83.336C521.176 79.048 520.184 73.96 520.184 68.072C520.184 63.848 520.952 59.496 522.488 55.016C524.088 50.472 526.456 46.312 529.592 42.536C532.792 38.696 536.792 35.592 541.592 33.224C546.456 30.856 552.12 29.672 558.584 29.672C562.616 29.672 566.616 30.312 570.584 31.592C574.616 32.872 578.264 34.888 581.528 37.64C584.856 40.328 587.512 43.816 589.496 48.104C591.48 52.328 592.472 57.384 592.472 63.272C592.472 67.496 591.672 71.88 590.072 76.424C588.536 80.904 586.168 85.064 582.968 88.904C579.832 92.68 575.832 95.752 570.968 98.12C566.168 100.488 560.536 101.672 554.072 101.672ZM554.264 88.232C558.616 88.232 562.296 87.496 565.304 86.024C568.376 84.488 570.84 82.504 572.696 80.072C574.552 77.64 575.896 75.016 576.728 72.2C577.624 69.384 578.072 66.664 578.072 64.04C578.072 61.224 577.56 58.568 576.536 56.072C575.576 53.576 574.2 51.368 572.408 49.448C570.616 47.464 568.504 45.928 566.072 44.84C563.64 43.688 560.952 43.112 558.008 43.112C553.656 43.112 549.976 43.88 546.968 45.416C543.96 46.888 541.528 48.84 539.672 51.272C537.88 53.704 536.568 56.328 535.736 59.144C534.968 61.96 534.584 64.68 534.584 67.304C534.584 70.056 535.064 72.712 536.024 75.272C536.984 77.768 538.328 80.008 540.056 81.992C541.784 83.912 543.832 85.448 546.2 86.6C548.632 87.688 551.32 88.232 554.264 88.232Z" fill="white"/>
<path id="Vector_4" d="M469.924 30.344H517.54L515.812 44.072H498.916L491.908 101H477.508L484.516 44.072H468.196L469.924 30.344Z" fill="white"/>
<path id="Vector_5" d="M454.476 48.68C451.98 47.016 449.388 45.64 446.7 44.552C444.076 43.4 441.548 42.76 439.116 42.632C437.58 42.568 436.204 42.664 434.988 42.92C433.772 43.112 432.684 43.496 431.724 44.072C430.828 44.584 430.092 45.288 429.516 46.184C429.004 47.08 428.684 48.136 428.556 49.352C428.364 51.016 428.812 52.552 429.9 53.96C431.052 55.304 432.588 56.552 434.508 57.704C436.492 58.856 438.572 59.912 440.748 60.872C443.372 62.024 445.868 63.464 448.236 65.192C450.604 66.92 452.46 69.192 453.804 72.008C455.148 74.76 455.532 78.376 454.956 82.856C454.636 85.544 453.804 88.072 452.46 90.44C451.116 92.808 449.292 94.888 446.988 96.68C444.748 98.408 442.06 99.72 438.924 100.616C435.788 101.512 432.236 101.832 428.268 101.576C425.58 101.384 422.892 100.936 420.204 100.232C417.516 99.528 414.892 98.568 412.332 97.352C409.772 96.072 407.34 94.472 405.036 92.552L412.524 82.088C413.996 83.368 415.66 84.552 417.516 85.64C419.372 86.664 421.26 87.496 423.18 88.136C425.1 88.776 426.892 89.16 428.556 89.288C430.22 89.352 431.916 89.224 433.644 88.904C435.372 88.52 436.876 87.784 438.156 86.696C439.436 85.608 440.204 84.04 440.46 81.992C440.652 80.584 440.332 79.272 439.5 78.056C438.668 76.84 437.548 75.72 436.14 74.696C434.732 73.672 433.132 72.744 431.34 71.912C429.292 70.952 427.18 69.864 425.004 68.648C422.828 67.432 420.812 65.992 418.956 64.328C417.164 62.664 415.788 60.616 414.828 58.184C413.868 55.752 413.612 52.872 414.06 49.544C414.572 45.448 415.916 41.96 418.092 39.08C420.268 36.136 423.116 33.928 426.636 32.456C430.156 30.92 434.124 30.184 438.54 30.248C442.316 30.44 445.548 30.952 448.236 31.784C450.988 32.552 453.388 33.512 455.436 34.664C457.484 35.816 459.372 37.064 461.1 38.408L454.476 48.68Z" fill="white"/>
<path id="Vector_6" d="M380.444 30.344C384.476 30.344 387.996 30.824 391.004 31.784C394.076 32.744 396.636 34.152 398.684 36.008C400.732 37.864 402.268 40.072 403.292 42.632C404.38 45.128 404.924 47.976 404.924 51.176C404.924 54.248 404.412 57.384 403.388 60.584C402.428 63.784 400.86 66.76 398.684 69.512C396.508 72.2 393.628 74.408 390.044 76.136C386.524 77.8 382.204 78.632 377.084 78.632H367.58L364.796 101H350.396L359.036 30.344H380.444ZM378.14 65.096C380.444 65.096 382.364 64.68 383.9 63.848C385.436 63.016 386.684 61.96 387.644 60.68C388.604 59.4 389.276 58.088 389.66 56.744C390.108 55.4 390.332 54.216 390.332 53.192C390.332 52.104 390.108 50.824 389.66 49.352C389.212 47.88 388.316 46.6 386.972 45.512C385.628 44.36 383.58 43.784 380.828 43.784H371.804L369.212 65.096H378.14Z" fill="white"/>
<path id="Vector_7" d="M272.709 101H259.269L268.293 27.464H268.389L300.837 83.144L295.077 81.8L340.869 27.464H341.061L332.037 101H318.117L323.301 58.856V66.056L295.173 100.04H294.981L274.629 66.056L277.797 59.432L272.709 101Z" fill="white"/>
<path id="Vector_8" d="M235.286 30.344H249.686L241.046 101H226.646L235.286 30.344Z" fill="white"/>
<path id="Vector_9" d="M215.039 48.68C212.543 47.016 209.951 45.64 207.263 44.552C204.639 43.4 202.111 42.76 199.679 42.632C198.143 42.568 196.767 42.664 195.551 42.92C194.335 43.112 193.247 43.496 192.287 44.072C191.391 44.584 190.655 45.288 190.079 46.184C189.567 47.08 189.247 48.136 189.119 49.352C188.927 51.016 189.375 52.552 190.463 53.96C191.615 55.304 193.151 56.552 195.071 57.704C197.055 58.856 199.135 59.912 201.311 60.872C203.935 62.024 206.431 63.464 208.799 65.192C211.167 66.92 213.023 69.192 214.367 72.008C215.711 74.76 216.095 78.376 215.519 82.856C215.199 85.544 214.367 88.072 213.023 90.44C211.679 92.808 209.855 94.888 207.551 96.68C205.311 98.408 202.623 99.72 199.487 100.616C196.351 101.512 192.799 101.832 188.831 101.576C186.143 101.384 183.455 100.936 180.767 100.232C178.079 99.528 175.455 98.568 172.895 97.352C170.335 96.072 167.903 94.472 165.599 92.552L173.087 82.088C174.559 83.368 176.223 84.552 178.079 85.64C179.935 86.664 181.823 87.496 183.743 88.136C185.663 88.776 187.455 89.16 189.119 89.288C190.783 89.352 192.479 89.224 194.207 88.904C195.935 88.52 197.439 87.784 198.719 86.696C199.999 85.608 200.767 84.04 201.023 81.992C201.215 80.584 200.895 79.272 200.063 78.056C199.231 76.84 198.111 75.72 196.703 74.696C195.295 73.672 193.695 72.744 191.903 71.912C189.855 70.952 187.743 69.864 185.567 68.648C183.391 67.432 181.375 65.992 179.519 64.328C177.727 62.664 176.351 60.616 175.391 58.184C174.431 55.752 174.175 52.872 174.623 49.544C175.135 45.448 176.479 41.96 178.655 39.08C180.831 36.136 183.679 33.928 187.199 32.456C190.719 30.92 194.687 30.184 199.103 30.248C202.879 30.44 206.111 30.952 208.799 31.784C211.551 32.552 213.951 33.512 215.999 34.664C218.047 35.816 219.935 37.064 221.663 38.408L215.039 48.68Z" fill="white"/>
</g>
</g>
</g>
</svg>
